<?xml version="1.0" standalone="no"?>
<!DOCTYPE svg PUBLIC "-//W3C//DTD SVG 20010904//EN"
 "http://www.w3.org/TR/2001/REC-SVG-20010904/DTD/svg10.dtd">
<svg version="1.0" xmlns="http://www.w3.org/2000/svg"
 width="586.000000pt" height="588.000000pt" viewBox="0 0 586.000000 588.000000"
 preserveAspectRatio="xMidYMid meet">

<g transform="translate(0.000000,588.000000) scale(0.100000,-0.100000)"
fill="#000000" stroke="none">
<path d="M2630 5839 c-373 -38 -783 -166 -1105 -346 -732 -407 -1256 -1102
-1440 -1908 -59 -258 -84 -569 -66 -826 29 -416 119 -754 296 -1114 146 -297
326 -548 560 -780 449 -447 1010 -726 1650 -822 150 -22 638 -26 780 -5 951
137 1725 667 2189 1497 380 680 460 1557 211 2310 -147 445 -381 824 -714
1156 -162 161 -256 237 -456 370 -375 251 -816 411 -1275 464 -146 16 -484 19
-630 4z m-713 -1929 c26 0 45 -5 47 -12 2 -7 13 -52 24 -99 22 -96 71 -208
128 -296 22 -34 205 -227 443 -467 223 -226 398 -404 388 -396 -16 12 -42 -10
-270 -237 -139 -137 -278 -266 -309 -287 -90 -58 -194 -104 -303 -132 -85 -23
-120 -27 -240 -27 -119 0 -155 4 -238 26 -694 184 -966 1012 -516 1572 129
159 301 271 509 330 63 17 221 35 264 29 16 -2 48 -4 73 -4z m2357 -24 c338
-86 596 -337 702 -681 26 -84 28 -102 28 -270 0 -167 -2 -186 -27 -268 -104
-337 -353 -586 -678 -677 -93 -26 -239 -40 -330 -33 -65 6 -70 8 -75 32 -15
78 -41 164 -65 223 -54 132 -109 201 -372 468 l-252 255 245 -241 c268 -263
302 -287 446 -324 92 -24 158 -25 251 -6 180 38 323 147 404 308 42 83 59 159
59 263 0 234 -116 420 -326 523 -174 86 -392 74 -557 -30 -29 -17 -156 -135
-284 -261 l-232 -230 -118 110 c-65 61 -129 123 -143 137 l-24 27 224 225
c234 234 320 308 430 367 203 111 462 141 694 83z"/>
<path d="M1755 3514 c-219 -34 -406 -188 -477 -392 -33 -96 -33 -278 0 -374
62 -180 209 -318 397 -374 81 -24 229 -24 310 0 129 38 166 66 423 320 l243
240 -232 232 c-246 246 -299 288 -419 325 -65 20 -188 31 -245 23z"/>
</g>
</svg>
